<?xml version="1.0" encoding="utf-8"?>
<!-- Uploaded to: SVG Repo, www.svgrepo.com, Generator: SVG Repo Mixer Tools -->
<svg width="800px" height="800px" viewBox="0 0 1024 1024" class="icon"  version="1.1" xmlns="http://www.w3.org/2000/svg"><path d="M910.464 530.304a180.48 180.48 0 0 0 34.56-105.024 183.744 183.744 0 0 0-183.744-183.744c-20.48 0-39.872 4.096-58.24 10.304-45.12-74.688-126.208-125.184-219.776-125.184-118.4 0-217.088 80.512-247.04 189.376-3.456-0.256-6.72-1.024-10.24-1.024a147.008 147.008 0 0 0 0 294.016c33.984 0 64.896-12.032 89.728-31.36 45.12 39.04 103.168 63.488 167.488 63.488a255.36 255.36 0 0 0 171.392-66.688c30.08 21.568 66.688 34.56 106.56 34.56 10.24 0 20.096-1.344 29.952-3.008l-0.064-0.448a22.208 22.208 0 0 0 18.944-21.76 22.4 22.4 0 0 0-22.464-22.4c-1.344 0-2.56 0.512-3.904 0.768l89.472-54.976a22.08 22.08 0 0 0-6.016 14.976 22.4 22.4 0 0 0 22.4 22.464 21.76 21.76 0 0 0 13.952-5.312l0.384 0.384 0.832-1.216a20.672 20.672 0 0 0 5.824-8.192z" fill="" /><path d="M483.264 596.352a209.024 209.024 0 0 1-138.176-52.544l-27.776-24.064-29.056 22.592a101.248 101.248 0 0 1-62.208 21.888 102.272 102.272 0 0 1-102.208-102.208c0-56.384 45.824-102.208 102.208-102.208l6.976 0.896 36.672 2.688 9.728-35.456a212.608 212.608 0 0 1 203.84-156.48 210.56 210.56 0 0 1 181.312 103.552l18.56 30.784 34.112-11.456c15.936-5.376 30.336-8 43.968-8 76.608 0 138.944 62.336 138.944 138.944s-62.336 138.944-138.944 138.944c-28.736 0-56.576-9.024-80.448-26.176l-29.184-20.928-26.816 24.064a212.032 212.032 0 0 1-141.504 55.168z" fill="#2382FF" /><path d="M586.24 767.168l-0.128-0.064a22.4 22.4 0 0 0-31.616 0l-25.152 25.152v-105.856a22.4 22.4 0 0 0-44.8 0v105.856l-25.024-25.152a22.4 22.4 0 0 0-31.616 0l-0.128 0.064a22.528 22.528 0 0 0 0 31.616l62.976 62.976c4.48 4.416 10.368 6.464 16.256 6.4a22.336 22.336 0 0 0 16.256-6.4l62.976-62.976a22.528 22.528 0 0 0 0-31.616z" fill="" /><path d="M485.632 195.52c-5.376-0.128-122.88-0.576-170.624 113.28a15.872 15.872 0 0 0 8.576 20.928 16 16 0 0 0 20.928-8.512c38.528-91.84 132.864-93.696 140.352-93.696h0.512a16 16 0 0 0 0.256-32z" fill="#FFFFFF" /><path d="M318.016 355.072m-16 0a16 16 0 1 0 32 0 16 16 0 1 0-32 0Z" fill="#FFFFFF" /></svg>